<?xml version="1.0" encoding="UTF-8"?>
<svg xmlns="http://www.w3.org/2000/svg" xmlns:se="https://standardebooks.org/vocab/1.0" version="1.1" viewBox="0 0 1400 340" se:generated-from="a8562df16d84a2a1dc53153b719b03cf3906061c">
	<path d="M 412.00421,51.404756 412.00421,128.60001 434.36744,128.60001 C 455.60783,128.60001 473.29256,112.50597 473.29256,89.955596 473.29256,67.498796 455.51426,51.404756 434.36744,51.404756 L 412.00421,51.404756 Z M 429.59537,112.88025 429.59537,67.124516 432.3089,67.124516 C 445.4087,67.124516 454.29785,77.136506 454.29785,90.049166 454.20428,102.96183 445.31513,112.88025 432.3089,112.88025 L 429.59537,112.88025 Z"/>
	<path d="M 545.40857,51.404756 527.81741,51.404756 527.81741,96.037646 C 527.81741,108.95031 523.88747,112.69311 515.27903,112.69311 506.67059,112.69311 502.74065,108.95031 502.74065,96.037646 L 502.74065,51.404756 485.14949,51.404756 485.14949,101.184 C 485.14949,120.27228 495.62933,130.00356 515.27903,130.00356 534.92873,130.00356 545.40857,120.27228 545.40857,101.184 L 545.40857,51.404756 Z"/>
	<path d="M 560.71442,51.404756 560.71442,128.60001 590.00183,128.60001 C 606.0023,128.60001 615.26573,119.80443 615.26573,107.07891 615.26573,94.634096 608.43512,89.300606 598.79741,87.616346 605.34731,84.247826 608.43512,78.165776 608.43512,71.054456 608.43512,56.363966 597.95528,51.404756 584.66834,51.404756 L 560.71442,51.404756 Z M 578.30558,81.627866 578.30558,64.972406 579.70913,64.972406 C 587.38187,64.972406 591.40538,67.311656 591.40538,72.832286 591.40538,79.288616 587.2883,81.627866 579.70913,81.627866 L 578.30558,81.627866 Z M 578.30558,115.03236 578.30558,96.786206 583.82621,96.786206 C 592.15394,96.786206 596.73887,99.312596 596.73887,106.42392 596.73887,112.50597 592.15394,115.03236 583.82621,115.03236 L 578.30558,115.03236 Z"/>
	<path d="M 645.62467,51.404756 628.03351,51.404756 628.03351,128.60001 672.19855,128.60001 672.19855,113.16096 645.62467,113.16096 645.62467,51.404756 Z"/>
	<path d="M 703.44056,51.404756 685.8494,51.404756 685.8494,128.60001 703.44056,128.60001 703.44056,51.404756 Z"/>
	<path d="M 737.31565,80.692166 737.50279,80.692166 768.19375,128.60001 785.78491,128.60001 785.78491,51.404756 768.19375,51.404756 768.19375,99.312596 768.00661,99.312596 737.31565,51.404756 719.72449,51.404756 719.72449,128.60001 737.31565,128.60001 737.31565,80.692166 Z"/>
	<path d="M 846.19443,51.404756 802.02939,51.404756 802.02939,128.60001 846.19443,128.60001 846.19443,113.16096 819.62055,113.16096 819.62055,97.628336 845.07159,97.628336 845.07159,82.189286 819.62055,82.189286 819.62055,66.843806 846.19443,66.843806 846.19443,51.404756 Z"/>
	<path d="M 861.30732,51.404756 861.30732,128.60001 878.89848,128.60001 878.89848,98.096186 902.47812,128.60001 924.84135,128.60001 898.26747,96.692636 C 907.71804,93.698396 914.0808,85.932086 914.0808,74.329406 914.0808,59.171066 903.22668,51.404756 888.91047,51.404756 L 861.30732,51.404756 Z M 878.89848,85.651376 878.89848,65.440256 880.95702,65.440256 C 887.60049,65.440256 895.55394,65.908106 895.55394,75.545816 895.55394,85.183526 887.60049,85.651376 880.95702,85.651376 L 878.89848,85.651376 Z"/>
	<path d="M 961.82327,50.001206 C 949.37846,50.001206 936.65294,59.171066 936.65294,73.580846 936.65294,81.627866 942.08,88.832756 951.34343,93.417686 960.51329,98.002616 968.74745,100.52901 968.74745,106.14321 968.74745,113.3481 961.44899,113.72238 957.61262,113.72238 949.00418,113.72238 938.71148,105.02037 938.71148,105.02037 L 929.9159,119.80443 C 929.9159,119.80443 940.86359,130.00356 958.9226,130.00356 973.98737,130.00356 988.02287,123.54723 988.02287,105.11394 988.02287,95.008376 978.5723,87.709916 969.96386,84.060686 961.16828,80.317886 953.86982,77.230076 953.86982,72.925856 953.86982,68.715206 957.0512,66.001676 963.03968,66.001676 970.99313,66.001676 978.66587,71.335166 978.66587,71.335166 L 985.77719,57.299666 C 985.77719,57.299666 975.85877,50.001206 961.82327,50.001206 Z"/>
	<path d="M 456.70541,231.05151 443.51157,231.05151 443.51157,269.22943 C 443.51157,275.05437 440.63419,277.37031 436.84447,277.37031 433.47583,277.37031 429.33521,273.44023 429.33521,273.44023 L 425.12441,284.45849 C 425.12441,284.45849 430.38791,290.00271 438.66915,290.00271 450.24885,290.00271 456.70541,283.96723 456.70541,272.59807 L 456.70541,231.05151 Z"/>
	<path d="M 498.81308,231.05151 486.60176,231.05151 463.23182,288.95001 477.40818,288.95001 481.68916,277.37031 503.72568,277.37031 508.00666,288.95001 522.18302,288.95001 498.81308,231.05151 Z M 499.23416,265.79061 486.18068,265.79061 492.63724,248.94741 492.7776,248.94741 499.23416,265.79061 Z"/>
	<path d="M 577.23562,288.95001 590.42946,288.95001 585.23614,231.05151 571.20014,231.05151 558.3572,264.45719 545.51426,231.05151 531.47826,231.05151 526.28494,288.95001 539.47878,288.95001 542.2158,254.63199 542.5667,254.63199 554.42712,288.59911 562.28728,288.59911 574.1477,254.63199 574.4986,254.63199 577.23562,288.95001 Z"/>
	<path d="M 633.83985,231.05151 600.71489,231.05151 600.71489,288.95001 633.83985,288.95001 633.83985,277.37031 613.90873,277.37031 613.90873,265.72043 632.99769,265.72043 632.99769,254.14073 613.90873,254.14073 613.90873,242.63121 633.83985,242.63121 633.83985,231.05151 Z"/>
	<path d="M 667.75949,229.99881 C 658.42555,229.99881 648.88107,236.87645 648.88107,247.68417 648.88107,253.71965 652.95151,259.12351 659.89933,262.56233 666.77697,266.00115 672.95281,267.89601 672.95281,272.10681 672.95281,277.51067 667.47877,277.79139 664.60139,277.79139 658.14483,277.79139 650.42503,271.26465 650.42503,271.26465 L 643.82811,282.35309 C 643.82811,282.35309 652.03917,290.00271 665.58391,290.00271 676.88289,290.00271 687.40989,285.16029 687.40989,271.33483 687.40989,263.75539 680.32171,258.28135 673.86515,255.54433 667.26823,252.73713 661.79419,250.42119 661.79419,247.19291 661.79419,244.03481 664.18031,241.99959 668.67183,241.99959 674.63713,241.99959 680.39189,245.99985 680.39189,245.99985 L 685.72557,235.47285 C 685.72557,235.47285 678.28649,229.99881 667.75949,229.99881 Z"/>
	<path d="M 747.96142,231.05151 734.76758,231.05151 734.76758,269.22943 C 734.76758,275.05437 731.8902,277.37031 728.10048,277.37031 724.73184,277.37031 720.59122,273.44023 720.59122,273.44023 L 716.38042,284.45849 C 716.38042,284.45849 721.64392,290.00271 729.92516,290.00271 741.50486,290.00271 747.96142,283.96723 747.96142,272.59807 L 747.96142,231.05151 Z"/>
	<path d="M 758.06702,259.96567 C 758.06702,276.87905 770.13798,290.00271 787.2619,290.00271 803.89456,290.00271 816.3866,276.87905 816.3866,259.96567 816.3866,243.05229 803.33312,229.99881 787.2619,229.99881 771.33104,229.99881 758.06702,243.05229 758.06702,259.96567 Z M 772.31356,259.96567 C 772.31356,251.33353 777.0858,242.70139 787.2619,242.70139 797.50818,242.70139 802.14006,251.33353 802.14006,259.96567 802.14006,268.59781 797.7889,277.22995 787.2619,277.22995 776.45418,277.22995 772.31356,268.59781 772.31356,259.96567 Z"/>
	<path d="M 820.89204,231.05151 842.22676,262.98341 842.22676,288.95001 855.4206,288.95001 855.4206,262.98341 876.75532,231.05151 860.89464,231.05151 848.82368,249.57903 836.75272,231.05151 820.89204,231.05151 Z"/>
	<path d="M 914.69276,277.01941 C 901.42874,277.01941 895.6038,267.75565 895.6038,259.96567 895.6038,252.24587 901.42874,242.98211 914.69276,242.98211 921.43004,242.98211 926.06192,246.56129 926.06192,246.56129 L 931.67632,235.33249 C 931.67632,235.33249 925.21976,229.99881 912.65754,229.99881 896.23542,229.99881 881.28708,243.47337 881.28708,260.10603 881.28708,276.66851 896.3056,290.00271 912.65754,290.00271 925.21976,290.00271 931.67632,284.66903 931.67632,284.66903 L 926.06192,273.44023 C 926.06192,273.44023 921.43004,277.01941 914.69276,277.01941 Z"/>
	<path d="M 974.91785,231.05151 941.79289,231.05151 941.79289,288.95001 974.91785,288.95001 974.91785,277.37031 954.98673,277.37031 954.98673,265.72043 974.07569,265.72043 974.07569,254.14073 954.98673,254.14073 954.98673,242.63121 974.91785,242.63121 974.91785,231.05151 Z"/>
</svg>
